<?xml version="1.0" encoding="UTF-8" standalone="no"?>
<!-- Created with Inkscape (http://www.inkscape.org/) -->

<svg
   xmlns:dc="http://purl.org/dc/elements/1.1/"
   xmlns:cc="http://creativecommons.org/ns#"
   xmlns:rdf="http://www.w3.org/1999/02/22-rdf-syntax-ns#"
   xmlns:svg="http://www.w3.org/2000/svg"
   xmlns="http://www.w3.org/2000/svg"
   xmlns:sodipodi="http://sodipodi.sourceforge.net/DTD/sodipodi-0.dtd"
   xmlns:inkscape="http://www.inkscape.org/namespaces/inkscape"
   width="512mm"
   height="512mm"
   viewBox="0 0 512 512"
   version="1.1"
   id="svg8"
   inkscape:version="0.92+devel (unknown)"
   sodipodi:docname="function-text2path-union-stroke2path.svg">
  <defs
     id="defs2" />
  <sodipodi:namedview
     id="base"
     pagecolor="#ffffff"
     bordercolor="#00AFD7"
     borderopacity="1.0"
     inkscape:pageopacity="0.0"
     inkscape:pageshadow="2"
     inkscape:zoom="0.175"
     inkscape:cx="-297.37724"
     inkscape:cy="1114.4863"
     inkscape:document-units="mm"
     inkscape:current-layer="layer1"
     inkscape:document-rotation="0"
     showgrid="false"
     inkscape:window-width="1920"
     inkscape:window-height="1055"
     inkscape:window-x="0"
     inkscape:window-y="0"
     inkscape:window-maximized="1" />
  <metadata
     id="metadata5">
    <rdf:RDF>
      <cc:Work
         rdf:about="">
        <dc:format>image/svg+xml</dc:format>
        <dc:type
           rdf:resource="http://purl.org/dc/dcmitype/StillImage" />
        <dc:title></dc:title>
      </cc:Work>
    </rdf:RDF>
  </metadata>
  <g
     inkscape:label="Layer 1"
     inkscape:groupmode="layer"
     id="layer1"
     transform="translate(0,215)">
    <path
       style="color:#00AFD7;font-style:italic;font-variant:normal;font-weight:600;font-stretch:normal;font-size:469.61135864px;line-height:293.50708008px;font-family:Montserrat;-inkscape-font-specification:'Montserrat Semi-Bold Italic';font-variant-ligatures:normal;font-variant-position:normal;font-variant-caps:normal;font-variant-numeric:normal;font-variant-alternates:normal;font-variant-east-asian:normal;font-feature-settings:normal;font-variation-settings:normal;text-indent:0;text-align:start;text-decoration:none;text-decoration-line:none;text-decoration-style:solid;text-decoration-color:#00AFD7;letter-spacing:0px;word-spacing:0px;text-transform:none;writing-mode:lr-tb;direction:ltr;text-orientation:mixed;dominant-baseline:auto;baseline-shift:baseline;text-anchor:start;white-space:normal;shape-padding:0;shape-margin:0;inline-size:0;clip-rule:nonzero;display:inline;overflow:visible;visibility:visible;opacity:1;isolation:auto;mix-blend-mode:normal;color-interpolation:sRGB;color-interpolation-filters:linearRGB;solid-color:#00AFD7;solid-opacity:1;vector-effect:none;fill-opacity:1;fill-rule:nonzero;stroke:none;stroke-width:5.18591118;stroke-linecap:butt;stroke-linejoin:miter;stroke-miterlimit:3.79999995;stroke-dasharray:none;stroke-dashoffset:0;stroke-opacity:1;color-rendering:auto;image-rendering:auto;shape-rendering:auto;text-rendering:auto;enable-background:accumulate"
       d="m 164.9843,-212.04374 v 5.4e-4 c -29.04636,0 -52.98096,7.98201 -71.356461,24.01881 -18.016343,15.68201 -29.970306,37.86324 -35.902001,66.20357 l -3.462424,16.44651 H 11.865884 L 1.0873508,-51.480575 H 43.462906 L 1.5745557,157.9601 H 67.747031 L 109.63538,-51.480575 h 69.65152 l 10.77853,-53.893735 h -71.09115 l 2.26933,-10.96988 c 3.17525,-14.28857 8.36839,-24.65897 15.33435,-31.32207 6.93944,-6.6377 16.23006,-9.99654 28.40634,-9.99654 12.1763,0 22.21505,3.3751 30.50845,10.13268 l 2.39154,1.94882 27.45069,-48.97988 -1.79178,-1.36514 c -7.13778,-5.43831 -15.9058,-9.46554 -26.2308,-12.13242 l -0.0107,-0.003 c -9.98104,-2.66051 -20.75888,-3.98179 -32.31738,-3.98179 z m 328.6981,204.5643442 -41.69967,0.00161 1.07892,3.3814886 c 9.42614,29.5351652 14.1241,58.1800362 14.1241,85.9591942 0,36.635113 -6.38104,72.950333 -19.16338,108.992363 v 0.004 l -0.003,0.004 c -12.57379,35.83528 -30.48215,68.82414 -53.74527,99.00333 l -3.21855,4.17633 h 46.3643 l 0.77664,-0.91596 c 22.60061,-26.6517 40.27424,-58.50503 53.0292,-95.49428 v -0.003 -0.003 c 12.75281,-37.19578 19.13604,-75.06 19.13604,-113.549235 0,-15.99115 -1.49241,-32.085758 -4.47488,-48.276158 -2.97892,-16.171311 -6.81533,-30.0528027 -11.54659,-41.6659183 z m -284.68995,0.00161 -0.77663,0.9159876 C 185.61298,20.092481 167.94047,52.05324 155.18607,89.253523 l 0.001,-0.0043 c -12.7542,36.987217 -19.13766,74.748067 -19.13766,113.237297 0,15.99121 1.49299,32.08524 4.47542,48.27562 2.97892,16.17131 6.81533,30.05282 11.54659,41.66591 l 0.65765,1.61489 h 41.70129 l -1.07892,-3.38147 c -9.42612,-29.53515 -14.12412,-58.18003 -14.12412,-85.95921 0,-36.63728 6.27611,-72.84688 18.84663,-108.675603 l 0.003,-0.008 c 12.78527,-36.047878 30.8001,-69.142439 54.06204,-99.320076 l 3.21855,-4.1763467 z m 38.13543,65.8519628 2.17125,3.863328 44.95789,79.994305 -87.77134,90.39175 h 52.83839 l 53.73186,-56.80197 31.31779,56.80197 h 47.77393 L 342.78293,145.5865 426.71615,58.374175 H 375.19303 L 323.68495,112.02886 294.25166,58.374175 Z"
       id="path4866"
       inkscape:connector-curvature="0" />
  </g>
</svg>