<?xml version="1.0" encoding="UTF-8"?>
<svg width="576px" height="512px" viewBox="0 0 576 512" version="1.1" xmlns="http://www.w3.org/2000/svg" xmlns:xlink="http://www.w3.org/1999/xlink">
    <!-- Generator: Sketch 45.2 (43514) - http://www.bohemiancoding.com/sketch -->
    <title>puzzle-piece</title>
    <desc>Created with Sketch.</desc>
    <defs></defs>
    <g id="Page-1" stroke="none" stroke-width="1" fill="none" fill-rule="evenodd">
        <g id="puzzle-piece" fill-rule="nonzero" fill="#00AFD7">
            <path d="M519.442,288.651 C477.923,288.651 459.942,320.244 437.384,320.244 C377.409,320.244 432,144 432,144 C432,144 235.712,224 235.712,140.703 C235.712,104.876 272,94.453 272,54.718 C272,19.216 243.885,0 210.539,0 C175.885,0 144.173,18.891 144.173,56.346 C144.173,97.71 175.884,115.623 175.884,138.096 C175.885,207.719 0,166.758 0,166.758 L0,499.995 C0,499.995 178.635,541.042 178.635,471.333 C178.635,448.86 138.635,431.226 138.635,389.862 C138.635,352.406 167.885,333.516 202.212,333.516 C235.885,333.516 264,352.732 264,388.233 C264,427.968 227.712,438.391 227.712,474.218 C227.712,535.021 357.387,499.948 408.942,499.948 C408.942,499.948 374.217,379.847 434.769,379.847 C470.731,379.847 481.192,415.999 521.077,415.999 C556.712,416 576,387.99 576,354.443 C576,320.244 557.038,288.651 519.442,288.651 Z" id="Shape"></path>
        </g>
    </g>
</svg>